HIERARCHY
ROOT pelvis
{
  OFFSET 0 100 0
  CHANNELS 6 Xposition Yposition Zposition Zrotation Xrotation Yrotation
  JOINT pelvis_right_femur
  {
    OFFSET -10.78128 -3.44521 -0.5502486
    CHANNELS 3 Zrotation Xrotation Yrotation
    JOINT right_femur_tibia
    {
      OFFSET -0.8047443 -44.0398 -0.1307829
      CHANNELS 3 Zrotation Xrotation Yrotation
      JOINT right_tibia_foot
      {
        OFFSET 3.006224 -47.83518 -5
        CHANNELS 3 Zrotation Xrotation Yrotation
        End Site
        {
          OFFSET 0 -5 15
        }
      }
    }
  }
  JOINT pelvis_left_femur
  {
    OFFSET 10.78128 -3.44521 -0.5502486
    CHANNELS 3 Zrotation Xrotation Yrotation
    JOINT left_femur_tibia
    {
      OFFSET 0.8047443 -44.0398 -0.1307829
      CHANNELS 3 Zrotation Xrotation Yrotation
      JOINT left_tibia_foot
      {
        OFFSET -4.370144 -48.10324 -4.275266
        CHANNELS 3 Zrotation Xrotation Yrotation
        End Site
        {
          OFFSET 0 -5 15
        }
      }
    }
  }
  JOINT pelvis_spine1
  {
    OFFSET 0 6.468898 -3.129235
    CHANNELS 3 Zrotation Xrotation Yrotation
    JOINT spine1
    {
      OFFSET 0 23.15396 4.99043
      CHANNELS 3 Zrotation Xrotation Yrotation
      JOINT spine2
      {
        OFFSET 0 20.79997 -5.064912
        CHANNELS 3 Zrotation Xrotation Yrotation
        JOINT neck
        {
          OFFSET 0 14.38658 9.616178
          CHANNELS 3 Zrotation Xrotation Yrotation
          End Site
          {
            OFFSET 0 20 0
          }
        }
      }
      JOINT right_manubrium
      {
        OFFSET -5.722621 16.35077 3.967754
        CHANNELS 3 Zrotation Xrotation Yrotation
        JOINT right_clavicle
        {
          OFFSET -13.16364 1.694482 -4.693211
          CHANNELS 3 Zrotation Xrotation Yrotation
          JOINT right_humerus
          {
            OFFSET -28.5034 -0.3100689 -2.792744
            CHANNELS 3 Zrotation Xrotation Yrotation
            JOINT right_radius
            {
              OFFSET -25.15693 0.02248979 -1.271978
              CHANNELS 3 Zrotation Xrotation Yrotation
              End Site
              {
                OFFSET -15 0 0
              }
            }
          }
        }
      }
      JOINT left_manubrium
      {
        OFFSET 5.722621 16.35077 3.967754
        CHANNELS 3 Zrotation Xrotation Yrotation
        JOINT left_clavicle
        {
          OFFSET 13.16364 1.694482 -4.693211
          CHANNELS 3 Zrotation Xrotation Yrotation
          JOINT left_humerus
          {
            OFFSET 29.39168 -1.063119 -2.237045
            CHANNELS 3 Zrotation Xrotation Yrotation
            JOINT left_radius
            {
              OFFSET 24.59957 -0.9528479 0.9047498
              CHANNELS 3 Zrotation Xrotation Yrotation
              End Site
              {
                OFFSET 15 -0 -0
              }
            }
          }
        }
      }
    }
  }
}
MOTION
Frames: 19
Frame Time: 0.0416666666667
0 103.5113 0 0.7868934 -0.6469881 -0.01813839 3.678652 -16.01451 11.4859 -0 39.30727 -0 -5.264038 -18.47928 -4.561187 -7.059325 10.17093 -23.9498 -0 4.745052 -0 11.12311 -15.8494 28.93713 -3.795074 -4.091364 4.856113 3.017803 9.252647 -7.75272 1.724903 22.40994 6.234733 1.91197 -25.71871 10.26978 5.69097 -20.53757 11.55244 86.12078 34.67901 -19.11702 -0 0 15.81538 -5.939756 7.487202 4.716014 4.783492 -18.38958 -0.828098 -94.23916 27.15896 22.80063 0 0 -14.62629 8.139369 16.55803 5.228832
0.278316 103.3157 1.498546 0.6144174 -0.5741729 -0.008626654 3.858981 -17.01463 11.03055 -0 39.08515 -0 -5.523159 -17.13104 -4.265006 -6.905839 10.33816 -23.67582 -0 4.811554 -0 10.60199 -16.30532 28.46167 -3.611951 -3.885471 4.752683 2.86518 9.318443 -7.698395 1.74859 22.35895 6.369633 2.102882 -25.71463 10.30654 5.656376 -20.39483 11.50796 86.26357 34.78032 -19.13228 -0 0 15.63731 -6.33541 7.808987 4.69131 5.028102 -18.70614 -0.9250584 -94.04485 27.0811 22.5182 0 0 -15.03227 8.452084 16.83193 4.942082
0.5281318 103.0642 3.288329 0.07327826 -0.1023571 0.07876824 4.603538 -20.4474 9.924335 -0 37.10635 -0 -6.077208 -14.11254 -3.607702 -6.453374 10.97848 -22.88859 -0 4.961251 -0 8.905622 -17.9019 27.00798 -3.027544 -3.291439 4.54229 2.503194 9.336851 -7.620027 1.830926 22.1121 6.703041 2.615499 -25.7482 10.38262 5.52524 -19.96112 11.31393 86.68507 34.96345 -19.44409 -0 0 15.27258 -7.032284 8.530215 4.425263 5.819812 -19.62773 -1.088446 -93.66496 27.29004 21.80944 0 0 -16.57896 8.875493 17.49943 4.753146
0.7434153 102.7161 5.292092 -0.3769708 0.6134411 0.2036364 5.45817 -23.5689 9.505921 -0 34.23643 -0 -6.231131 -12.9702 -3.382957 -6.118638 11.60647 -22.35686 -0 5.16236 -0 7.553174 -19.2948 25.90729 -2.565309 -2.884377 4.495854 2.362993 9.145245 -7.668724 1.912829 21.79104 6.880277 2.94172 -25.85447 10.42877 5.466909 -19.59691 11.09893 86.93585 35.14263 -19.95371 -0 0 15.16767 -6.936898 8.849791 3.974758 6.476773 -20.26012 -1.010462 -93.58274 27.84848 21.41932 0 0 -18.03784 8.766424 17.80277 5.196427
0.9203212 102.2664 7.526152 -0.8383401 1.580609 0.3597383 6.512851 -26.79537 9.498555 -0 30.67285 -0 -6.201438 -12.59594 -3.352353 -5.807073 12.27317 -21.89477 -0 5.673537 -0 6.211961 -20.64411 24.8289 -2.136422 -2.532787 4.512802 2.346959 8.81124 -7.788116 2.007244 21.37691 7.00716 3.215365 -26.02049 10.48628 5.492379 -19.17951 10.84482 87.0733 35.46765 -20.58615 -0 0 15.13718 -6.391697 9.029014 3.386008 7.108992 -20.7538 -0.754066 -93.63556 28.5706 21.15025 0 0 -19.48933 8.440261 17.88037 5.9219
1.054 101.754 10.00449 -1.303968 2.778219 0.5551967 7.842675 -29.72092 10.1854 -0 27.03296 -0 -5.948188 -13.19545 -3.6408 -5.52121 12.92656 -21.68183 -0 6.777778 -0 4.712211 -21.89429 23.85901 -1.756133 -2.269151 4.599669 2.435334 8.239895 -7.933049 2.150728 20.90243 7.061841 3.424555 -26.19211 10.5904 5.679028 -18.65334 10.4926 86.99431 36.0801 -21.25876 -0 0 15.27868 -5.181788 9.047313 2.550966 7.661013 -20.90647 -0.2267431 -94.10493 29.76887 21.29502 0 0 -20.61631 7.56621 17.79893 7.344036
1.147531 101.2445 12.81795 -1.796993 4.029308 0.8263308 9.37782 -32.14717 11.34862 -0 23.89182 -0 -5.645579 -14.0135 -4.11793 -5.212575 13.49937 -21.58688 -0 8.845801 -0 2.723302 -22.98932 22.76541 -1.380457 -1.999933 4.673505 2.531256 7.480144 -8.015283 2.353248 20.4142 7.093973 3.646582 -26.25347 10.73435 6.006486 -17.93489 10.02003 86.70196 36.93641 -21.80166 -0 0 15.49563 -3.609929 9.00692 1.552724 8.140211 -20.71887 0.479971 -94.95053 31.2988 21.78891 0 0 -21.20718 6.246719 17.57623 9.313321
1.22421 100.7758 16.13899 -2.308811 4.970467 1.227741 10.64378 -34.01294 12.05264 -0 21.46057 -0 -5.640637 -13.40141 -4.327167 -4.840698 13.94417 -21.1341 -0 11.77595 -0 0.2017207 -23.74473 21.11723 -0.9847767 -1.593282 4.556698 2.564699 6.868 -8.011818 2.51768 19.99445 7.23611 3.963086 -26.20407 10.85683 6.273844 -17.10015 9.593472 86.46401 37.63516 -22.13393 -0 0 15.32763 -2.717299 9.143661 0.8988149 8.491217 -20.54304 0.982029 -95.52249 32.38872 22.04166 0 0 -21.44651 5.11835 17.15757 10.94734
1.35768 100.1482 20.204 -2.67861 5.091525 1.785557 10.16667 -35.71156 9.56442 -0 17.20796 -0 -6.603034 -7.999606 -2.946436 -4.494928 14.29844 -18.84399 -0 13.68216 -0 -1.571273 -23.70657 18.1068 -0.6793232 -0.9901086 3.961455 2.763817 7.519523 -8.240996 2.192506 19.68625 7.784463 4.320731 -26.70594 10.73832 5.644994 -16.8826 10.00376 87.4596 36.5097 -22.84856 -0 0 13.24976 -5.386481 9.74335 2.476395 8.396677 -21.77438 0.1796745 -93.54459 30.50575 20.21332 0 0 -23.09275 6.032356 15.93026 9.701321
1.61359 98.32393 25.43727 -1.431504 2.269488 2.243998 4.476488 -33.17925 -0.9631612 -0 3.502146 -0 -8.86173 2.696258 0.5765314 -5.017184 15.02638 -11.90487 -0 10.9425 -0 -0.1890441 -22.22867 13.09636 -0.9575282 -1.159762 3.193925 3.344268 10.60013 -8.959191 0.7777512 20.21683 8.128044 3.547805 -27.53938 9.268977 0.9829214 -19.05747 11.90196 92.3938 26.54802 -25.15153 -0 0 7.197191 -15.8097 8.625679 9.148751 6.892389 -26.26612 -4.04651 -86.59558 22.10694 14.18447 0 0 -30.56791 8.830181 12.13621 4.651687
1.618728 96.18828 32.37247 0.1665603 -2.490751 2.808736 3.153745 -24.16774 -3.168604 -0 0.0244812 -0 -9.378863 5.124072 -2.229509 -5.411146 18.5924 -6.708886 -0 15.7922 -0 0.5135616 -20.23685 13.03754 -0.7222999 -3.407493 3.084821 2.920728 11.05391 -8.902122 1.212338 22.36733 5.596769 0.6411998 -26.20351 8.167788 -5.380258 -19.9981 10.90079 98.63295 14.64919 -26.53837 -0 0 1.460038 -19.19684 6.031972 9.914857 5.413713 -27.69349 -5.614885 -82.60424 18.84483 8.877064 0 0 -35.17142 9.011039 11.94493 2.749296
1.550977 95.63382 39.67378 -1.192041 -1.666409 3.313479 6.423191 -23.79327 1.514275 -0 8.306122 -0 -9.687431 3.762278 -4.03323 -4.346048 19.28822 -7.867501 -0 23.03296 -0 -0.8805615 -18.09732 14.06901 0.4395186 -3.813687 2.762489 2.804446 10.18895 -8.963106 1.814756 22.215 5.132611 0.3789464 -26.49345 8.872557 -4.443577 -18.86035 10.1791 98.37061 17.67925 -26.55494 -0 0 1.733346 -15.53527 7.144111 7.403876 5.390575 -25.93697 -3.800002 -84.35431 21.08168 10.4033 0 0 -31.46478 9.350836 13.45422 2.760179
1.443986 95.52047 46.69766 -1.876908 -1.976857 3.595417 7.645927 -23.50174 2.503349 -0 12.35649 -0 -10.7196 1.905754 -4.142305 -3.786249 18.61208 -8.939991 -0 29.37102 -0 -1.684265 -16.50374 14.37332 1.028587 -3.312847 2.402165 2.564134 9.828548 -8.685021 2.08005 22.63049 5.237093 0.6202559 -26.03617 9.369054 -3.701833 -17.81802 9.894333 97.81036 20.11044 -25.85969 -0 0 1.994391 -14.23558 7.865672 5.963805 5.23028 -25.0204 -3.475295 -85.21291 21.89285 10.56758 0 0 -28.44453 10.38483 15.09036 1.217099
1.320635 96.04231 53.22592 -2.47645 -2.23354 3.581426 8.604097 -22.37606 3.30595 -0 15.81059 -0 -11.92584 -0.848801 -3.986446 -3.240325 16.00919 -10.19383 -0 37.91761 -0 -2.686874 -14.40469 14.36764 1.513379 -2.393523 2.289422 2.312291 9.548524 -8.271305 2.268408 23.02313 5.535382 1.119006 -25.52383 9.860838 -2.473566 -16.73206 9.820704 96.62582 23.56221 -24.79458 -0 0 2.853594 -12.96123 8.682873 4.533149 4.912849 -23.87049 -3.268455 -86.59519 22.84806 11.53227 0 0 -24.17443 11.35747 16.63102 -0.2881709
1.186159 96.95016 59.18023 -2.464947 -3.111654 3.287867 8.634198 -19.30823 2.993886 -0 16.80213 -0 -12.88726 -3.45418 -3.603673 -2.93738 11.31158 -10.74355 -0 47.01696 -0 -3.321822 -12.42329 14.29363 1.604161 -1.298121 2.674003 1.962508 9.632879 -7.702618 2.356064 23.5589 5.710321 1.584104 -24.85583 10.02018 -1.675962 -16.21534 10.05877 95.51631 26.14474 -23.44413 -0 0 4.011935 -12.79225 9.281399 3.499907 4.519405 -23.04125 -3.558558 -87.90368 23.01185 12.81265 0 0 -19.81214 12.36348 17.88705 -2.168771
1.066949 98.06405 64.52296 -2.180613 -3.828244 2.870498 8.264797 -14.84632 2.301392 -0 15.74224 -0 -13.12505 -6.029353 -2.949697 -2.631178 4.680185 -10.77 -0 54.18718 -0 -3.833515 -10.67618 13.90149 1.440163 -0.1880967 3.525336 1.669068 9.915918 -7.126352 2.265182 23.88811 5.841328 1.88734 -24.56419 10.01412 -1.058198 -16.47511 10.65891 94.23107 28.34019 -21.85409 -0 0 5.952527 -13.22428 9.949331 3.001915 4.109425 -22.30866 -3.873998 -89.47598 22.80542 15.18422 0 0 -15.36127 13.00788 18.67128 -3.738207
0.9637784 99.06916 69.44495 -1.714151 -4.761874 2.426672 7.768614 -9.595752 1.26417 -0 13.47124 -0 -12.63102 -7.889364 -2.279769 -2.137834 -1.711417 -10.10337 -0 57.36362 -0 -4.10685 -9.627392 13.82754 1.080357 0.6776292 4.396412 1.44317 10.19239 -6.637818 2.077206 24.22705 5.756582 1.879978 -24.37989 9.789176 -0.9547988 -17.30469 11.3102 93.20883 29.4413 -20.13576 -0 0 7.829772 -14.23238 10.49916 2.866922 3.880116 -21.79291 -4.140915 -90.66406 21.97095 17.24218 0 0 -11.48698 13.72141 19.16859 -5.712171
0.8858423 99.78824 74.12641 -1.24525 -5.857182 1.988066 7.367566 -4.010266 0.08050803 -0 10.93984 -0 -11.81502 -9.279584 -1.667645 -1.356627 -7.260576 -9.032818 -0 56.84254 -0 -4.190837 -9.066834 14.34871 0.6675832 1.303855 5.08875 1.252015 10.32581 -6.204429 1.841403 24.61595 5.5608 1.754939 -24.06205 9.402736 -1.110317 -18.36064 11.83082 92.24786 29.96112 -18.2062 -0 0 9.525859 -15.54685 10.88818 2.904068 3.883537 -21.37395 -4.31027 -91.56245 20.61794 18.78121 0 0 -7.780062 14.6896 19.54482 -8.224676
0.8835729 100.0787 78.65504 -0.9118197 -6.746258 1.578632 7.084343 1.918522 -1.182537 -0 8.25028 -0 -10.87513 -10.85835 -0.9562518 -0.2193585 -12.68506 -7.817029 -0 52.46929 -0 -4.105157 -8.64356 15.2171 0.325144 1.709563 5.693946 1.076764 10.32153 -5.764768 1.537544 24.92086 5.408069 1.581481 -23.71493 9.014071 -1.327117 -19.71468 12.25856 91.03247 30.37192 -15.8799 -0 0 11.57641 -17.12034 11.29893 3.300968 3.996893 -20.93638 -4.345878 -92.55222 18.94217 20.61849 0 0 -3.838838 15.69933 19.91817 -10.77057
